<?xml version="1.0" encoding="UTF-8" standalone="no"?>
<!DOCTYPE svg PUBLIC "-//W3C//DTD SVG 1.1//EN" "http://www.w3.org/Graphics/SVG/1.1/DTD/svg11.dtd">
<!-- Created with Vectornator (http://vectornator.io/) -->
<svg height="100%" stroke-miterlimit="10" style="fill-rule:nonzero;clip-rule:evenodd;stroke-linecap:round;stroke-linejoin:round;" version="1.1" viewBox="0 0 190 190" width="100%" xml:space="preserve" xmlns="http://www.w3.org/2000/svg" xmlns:vectornator="http://vectornator.io" xmlns:xlink="http://www.w3.org/1999/xlink">
<defs/>
<g id="Untitled" vectornator:layerName="Untitled">
<path d="M38.7188 28.875C38.5481 29.0174 38.3569 29.1375 38.1875 29.2812C38.4014 29.3774 38.7156 29.466 38.9375 29.5625C38.8562 29.3358 38.7833 29.1064 38.7188 28.875ZM21.3438 55.3438C17.5484 65.9483 9.12501 85.8692 9.125 98.9688C9.125 153.969 44.125 188.969 99.125 188.969C130.963 188.969 164.871 165.939 180.375 145.375C174.664 141.339 166.176 136.788 166.031 136.688C165.176 136.094 164.252 135.708 163.344 135.344C162.997 136.638 162.497 137.954 161.875 139.125C159.97 142.712 157.063 145.08 153 144.375C152.879 144.354 152.803 144.277 152.688 144.25C151.722 145.076 150.58 145.682 149.25 145.844C145.844 146.259 143.581 144.867 141.875 142.531C139.023 143.099 136.544 142.758 133.969 140.562C132.805 139.571 132.073 138.264 131.781 136.844C131.319 136.748 130.844 136.681 130.375 136.469C125.949 134.463 124.92 130.185 126.781 126.312C126.998 125.861 127.349 125.429 127.625 125C127.62 124.991 127.63 124.978 127.625 124.969C125.309 123.614 122.868 122.239 121.062 121.031C119.132 119.74 117.881 118.652 115.469 116.406C115.431 116.371 115.412 116.379 115.375 116.344C113.702 114.786 113.011 114.189 112.25 113.688C106.327 109.785 89.355 101.131 89.3438 101.125C76.949 94.9517 71.4431 91.9911 64.7188 87.5938C63.799 86.9923 62.2656 86.0003 60.5938 84.9062C59.0877 84.1671 57.8428 83.5093 56.2812 82.75C53.3414 81.3205 50.6315 80.1208 45.5 77.9688C45.0837 77.7942 45.0742 77.8002 44.6562 77.625C38.4216 75.0119 35.5353 73.7767 31.9688 72.0312C29.868 71.0031 33.825 63.1539 28.5938 60.1875C28.0432 59.8753 22.956 55.7414 22.3438 55.6875C22.0585 55.6624 21.9758 55.7304 21.8125 55.75C21.5532 55.5562 21.6734 55.5787 21.3438 55.3438Z" fill="#266a04" fill-rule="nonzero" opacity="1" stroke="none"/>
<path d="M29.625 61.1562C22.891 72.893 18.875 85.9282 18.875 98.9688C18.875 140.21 58.875 181.438 98.875 181.438C122.727 181.437 146.516 166.749 161.875 146.156C163.863 143.491 165.72 140.718 167.406 137.875C165.227 136.585 165.201 136.563 163.312 135.438C162.967 136.699 162.481 137.985 161.875 139.125C159.97 142.712 157.063 145.08 153 144.375C152.879 144.354 152.803 144.277 152.688 144.25C151.722 145.076 150.58 145.682 149.25 145.844C145.844 146.259 143.581 144.867 141.875 142.531C139.023 143.099 136.544 142.758 133.969 140.562C132.805 139.571 132.073 138.264 131.781 136.844C131.319 136.748 130.844 136.681 130.375 136.469C125.949 134.463 124.92 130.185 126.781 126.312C126.998 125.861 127.349 125.429 127.625 125C127.083 124.004 126.692 122.976 126.562 121.875C126.424 120.691 126.49 119.952 126.719 118.375C126.804 117.785 126.812 117.563 126.812 117.375C126.813 116.239 127.267 115.246 127.906 114.406C125.595 113.112 123.187 111.694 120.812 110.438C100.375 99.6268 83.1876 90.2428 48.4688 71.0312C44.175 68.6552 39.8847 66.2554 39.875 66.25C37.9186 65.1678 36.0169 64.2215 32.6562 62.625C32.4134 62.5096 32.1802 62.4065 31.7188 62.1875C30.8339 61.7677 30.396 61.5281 29.625 61.1562Z" fill="#de1e33" fill-rule="nonzero" opacity="1" stroke="none"/>
<path d="M33.0632 90.2244C31.8929 88.9035 32.4808 86.4712 34.3764 84.7915C36.272 83.1118 38.3967 83.4246 39.567 84.7454C40.7374 86.0663 40.5102 87.8949 38.6146 89.5745C36.719 91.2542 34.2336 91.5452 33.0632 90.2244Z" fill="#000000" fill-rule="nonzero" opacity="1" stroke="none" vectornator:layerName="circle"/>
<path d="M100.525 164.558C99.3544 163.237 99.9424 160.805 101.838 159.125C103.734 157.445 105.858 157.758 107.029 159.079C108.199 160.4 107.972 162.228 106.076 163.908C104.181 165.588 101.695 165.879 100.525 164.558Z" fill="#000000" fill-rule="nonzero" opacity="1" stroke="none" vectornator:layerName="circle"/>
<path d="M126.548 156.808C125.377 155.487 125.965 153.054 127.861 151.375C129.757 149.695 131.881 150.008 133.052 151.329C134.222 152.649 133.995 154.478 132.099 156.158C130.204 157.837 127.718 158.128 126.548 156.808Z" fill="#000000" fill-rule="nonzero" opacity="1" stroke="none" vectornator:layerName="circle"/>
<path d="M38.8801 116.44C37.7098 115.119 38.2977 112.687 40.1933 111.007C42.0889 109.327 44.2136 109.64 45.3839 110.961C46.5543 112.282 46.3272 114.111 44.4316 115.79C42.536 117.47 40.0505 117.761 38.8801 116.44Z" fill="#000000" fill-rule="nonzero" opacity="1" stroke="none" vectornator:layerName="circle"/>
<path d="M68.8979 122.451C67.7275 121.13 68.3154 118.698 70.211 117.018C72.1066 115.339 74.2313 115.651 75.4017 116.972C76.5721 118.293 76.3449 120.122 74.4493 121.801C72.5537 123.481 70.0683 123.772 68.8979 122.451Z" fill="#000000" fill-rule="nonzero" opacity="1" stroke="none" vectornator:layerName="circle"/>
<path d="M67.1879 155.329C66.0176 154.008 66.6055 151.575 68.5011 149.896C70.3967 148.216 72.5214 148.529 73.6917 149.85C74.8621 151.171 74.635 152.999 72.7394 154.679C70.8438 156.359 68.3583 156.649 67.1879 155.329Z" fill="#000000" fill-rule="nonzero" opacity="1" stroke="none" vectornator:layerName="circle"/>
<path d="M51.6275 139.369C50.4571 138.049 51.0451 135.616 52.9407 133.937C54.8363 132.257 56.9609 132.57 58.1313 133.891C59.3017 135.211 59.0745 137.04 57.1789 138.72C55.2833 140.399 52.7979 140.69 51.6275 139.369Z" fill="#000000" fill-rule="nonzero" opacity="1" stroke="none" vectornator:layerName="circle"/>
<path d="M55.2798 93.4318C54.1094 92.1109 54.6973 89.6786 56.5929 87.9989C58.4885 86.3192 60.6132 86.632 61.7836 87.9528C62.954 89.2737 62.7268 91.1023 60.8312 92.7819C58.9356 94.4616 56.4502 94.7526 55.2798 93.4318Z" fill="#000000" fill-rule="nonzero" opacity="1" stroke="none" vectornator:layerName="circle"/>
<path d="M97.7756 139.063C96.6052 137.742 97.1931 135.31 99.0887 133.63C100.984 131.95 103.109 132.263 104.279 133.584C105.45 134.905 105.223 136.733 103.327 138.413C101.431 140.093 98.946 140.384 97.7756 139.063Z" fill="#000000" fill-rule="nonzero" opacity="1" stroke="none" vectornator:layerName="circle"/>
<path d="M93.1927 116.685C92.0224 115.364 92.6103 112.931 94.5059 111.252C96.4015 109.572 98.5262 109.885 99.6965 111.206C100.867 112.526 100.64 114.355 98.7442 116.035C96.8486 117.714 94.3631 118.005 93.1927 116.685Z" fill="#000000" fill-rule="nonzero" opacity="1" stroke="none" vectornator:layerName="circle"/>
<path d="M25.4151 46.2769" fill="none" opacity="1" stroke="#002b2b" stroke-linecap="butt" stroke-linejoin="round" stroke-width="10"/>
</g>
</svg>
